<?xml version="1.0" standalone="no"?>
<!DOCTYPE svg PUBLIC "-//W3C//DTD SVG 20010904//EN"
 "http://www.w3.org/TR/2001/REC-SVG-20010904/DTD/svg10.dtd">
<svg version="1.0" xmlns="http://www.w3.org/2000/svg"
 width="700.000000pt" height="700.000000pt" viewBox="0 0 700.000000 700.000000"
 preserveAspectRatio="xMidYMid meet">
<metadata>
Created by potrace 1.14, written by Peter Selinger 2001-2017
</metadata>
<g transform="translate(0.000000,700.000000) scale(0.100000,-0.100000)"
fill="#000000" stroke="none">
<path d="M1685 5652 c4 -10 35 -100 70 -202 35 -102 81 -237 103 -300 l39
-115 1602 0 c1059 0 1605 3 1610 10 7 9 58 150 66 180 1 6 5 17 8 25 16 41
137 403 137 410 0 4 -819 8 -1821 8 -1690 0 -1820 -1 -1814 -16z"/>
<path d="M1245 4612 c-2 -2 32 -106 75 -230 43 -125 90 -263 105 -307 16 -44
29 -82 31 -83 1 -2 195 -5 431 -5 l428 -2 57 -28 c92 -45 144 -122 154 -226 6
-64 22 -18 -246 -746 -88 -242 -179 -489 -201 -550 -22 -60 -47 -126 -54 -145
-16 -40 -261 -709 -311 -849 -18 -52 -32 -97 -30 -100 3 -5 626 -7 673 -2 6 0
20 27 31 58 40 116 213 616 312 903 56 162 122 354 147 425 25 72 62 180 83
240 21 61 63 182 93 270 30 88 85 246 121 350 36 105 90 262 121 350 30 88 66
192 80 230 13 39 49 144 80 235 31 91 60 176 65 190 l7 25 -1124 0 c-619 0
-1126 -1 -1128 -3z"/>
<path d="M3519 4609 c-5 -3 25 -104 67 -225 41 -120 86 -250 99 -289 13 -38
67 -196 120 -350 54 -154 103 -298 110 -320 7 -22 50 -146 95 -275 45 -129 92
-266 105 -305 13 -38 62 -182 110 -320 48 -137 95 -275 105 -305 10 -30 39
-113 63 -185 25 -71 88 -256 141 -409 53 -154 98 -282 102 -285 3 -3 160 -6
349 -6 l343 -1 -18 51 c-10 27 -49 136 -88 240 -127 346 -223 608 -299 815
-41 113 -79 214 -83 225 -5 11 -29 76 -54 145 -25 69 -93 256 -152 415 -151
410 -162 447 -157 507 6 71 37 131 93 181 77 70 82 70 550 72 228 0 421 4 428
8 6 5 12 13 12 19 0 5 17 60 39 121 114 328 150 434 156 457 l6 25 -1116 0
c-615 0 -1121 -3 -1126 -6z"/>
</g>
</svg>
